<?xml version="1.0" encoding="utf-8"?>
<!-- Generator: Adobe Illustrator 19.0.0, SVG Export Plug-In . SVG Version: 6.00 Build 0)  -->
<svg version="1.1" xmlns="http://www.w3.org/2000/svg" xmlns:xlink="http://www.w3.org/1999/xlink" x="0px" y="0px"
	 viewBox="0 0 1000 1000" style="enable-background:new 0 0 1000 1000;" xml:space="preserve">
<style type="text/css">
	.st0{fill:#1A1A1A;}
	.st1{fill:#FFFFFF;}
</style>
<g id="Layer_1">
	<rect id="XMLID_1_" class="st0" width="1000" height="1000"/>
</g>
<g id="Layer_2">
	<path id="XMLID_10_" class="st1" d="M615.3,614.3c-3.4-4.5-25.7-34.6-33.6-45.4c35.5-5.9,60.7-26.5,81.3-48.2
		c23.5-24.7,38-64.5,38-101.3c0-36.8-14.5-76.6-38-101.3c-24.5-25.7-59-50-106-50H319c-24.3,0-63.7,0-63.7,0l64.9,90
		c79.3,0,157.4,0,236.8,0c14.8,0,31.5,10.2,41.3,21.2c9,10.1,14,26.1,14,40.1s-5,29.9-14,40c-9.8,11-22.3,18.7-37.1,18.7H515H406.2
		L612,761h111.8C679.2,701,632.9,638,615.3,614.3z"/>
</g>
</svg>
